<?xml version="1.0" standalone="no"?>
<!DOCTYPE svg PUBLIC "-//W3C//DTD SVG 20010904//EN"
 "http://www.w3.org/TR/2001/REC-SVG-20010904/DTD/svg10.dtd">
<svg version="1.0" xmlns="http://www.w3.org/2000/svg"
 width="497.000000pt" height="497.000000pt" viewBox="0 0 497.000000 497.000000"
 preserveAspectRatio="xMidYMid meet">
<metadata>
Created by potrace 1.14, written by Peter Selinger 2001-2017
</metadata>
<g transform="translate(0.000000,497.000000) scale(0.100000,-0.100000)"
fill="#000000" stroke="none">
<path d="M1135 3733 c-11 -29 -247 -664 -362 -973 -58 -157 -108 -291 -110
-297 -4 -10 28 -13 141 -13 142 0 147 1 156 23 5 12 64 170 131 350 67 180
123 326 125 325 3 -3 -25 -430 -41 -626 l-6 -72 163 2 162 3 19 50 c107 282
457 1230 457 1236 0 5 -65 9 -144 9 l-143 0 -106 -282 c-121 -325 -117 -325
-92 17 8 110 15 215 15 233 l0 32 -179 0 c-161 0 -180 -2 -186 -17z"/>
<path d="M1990 3693 c-12 -32 -116 -308 -232 -613 -116 -305 -216 -572 -224
-592 l-13 -38 157 0 157 0 238 630 c131 346 241 638 244 650 5 19 1 20 -150
20 l-156 0 -21 -57z"/>
<path d="M2338 3603 c-31 -82 -143 -370 -247 -642 -105 -271 -191 -497 -191
-502 0 -5 69 -9 154 -9 l154 0 46 118 c25 64 66 169 91 232 l46 115 -6 -155
c-3 -85 -8 -190 -11 -232 l-7 -78 254 -2 254 -3 -140 -38 c-77 -20 -205 -55
-285 -76 -1399 -379 -1284 -351 -1434 -351 -139 0 -209 15 -298 62 -217 116
-276 418 -146 747 16 40 27 75 25 77 -2 3 -40 -42 -84 -98 -315 -403 -487
-745 -509 -1008 -21 -250 166 -465 447 -516 102 -19 247 -13 387 16 168 34
107 9 1372 555 443 191 1019 440 1280 552 261 113 594 256 740 319 146 63 372
161 502 217 130 56 236 103 234 104 -2 2 -126 -30 -277 -71 -561 -153 -1242
-336 -1250 -336 -5 0 3 31 16 69 14 38 25 71 25 75 0 3 -79 6 -175 6 -96 0
-175 2 -175 4 0 16 56 152 64 158 6 4 88 8 182 8 l171 0 52 143 c28 78 51 145
51 150 0 4 -79 7 -175 7 -96 0 -175 2 -175 4 0 2 10 29 21 60 l22 56 173 0
c157 0 175 2 185 18 6 10 42 101 78 203 l67 184 -479 3 c-330 1 -484 -1 -493
-9 -7 -5 -83 -107 -170 -225 -86 -118 -158 -213 -161 -211 -2 2 24 76 58 163
33 87 72 187 85 222 l24 62 -158 0 -158 0 -56 -147z m612 -509 c-100 -274
-188 -512 -195 -528 -12 -28 -13 -21 -14 85 -1 64 -4 190 -7 280 l-7 164 199
251 c109 139 200 250 202 249 2 -1 -79 -227 -178 -501z"/>
</g>
</svg>
